<svg width="422" height="431" viewBox="0 0 422 431" fill="none" xmlns="http://www.w3.org/2000/svg">
<path d="M40.2733 102.287C41.7265 103.05 41.7265 103.05 43.2091 103.828C44.7387 104.629 44.7387 104.629 46.2992 105.446C53.0807 109.01 59.8059 112.662 66.4869 116.411C72.6503 119.867 78.8629 123.227 85.0841 126.578C94.037 131.406 102.91 136.359 111.751 141.39C119.584 145.835 127.494 150.128 135.425 154.395C142.216 158.058 148.944 161.819 155.647 165.641C167.67 172.489 179.851 179.031 192.089 185.487C194.399 186.729 196.676 187.992 198.946 189.302C200.093 189.952 201.239 190.603 202.42 191.273C203.448 191.87 204.476 192.467 205.535 193.082C208.863 194.459 210.039 194.451 213.397 193.266C215.403 192.297 217.373 191.253 219.315 190.16C219.881 189.844 220.447 189.529 221.03 189.203C222.249 188.523 223.466 187.839 224.682 187.152C227.933 185.316 231.197 183.502 234.459 181.684C235.124 181.312 235.788 180.941 236.473 180.558C242.972 176.931 249.522 173.403 256.084 169.891C264.584 165.331 273.047 160.716 281.467 156.012C285.35 153.844 289.243 151.695 293.139 149.551C304.635 143.224 316.117 136.882 327.522 130.391C335.001 126.136 342.542 122.042 350.181 118.082C356.651 114.707 362.994 111.127 369.334 107.516C372.195 105.896 375.057 104.279 377.921 102.665C379.423 101.816 380.923 100.964 382.419 100.105C389.074 96.306 394.649 93.7712 402.397 95.2656C408.909 97.1804 413.845 101.538 417.397 107.266C420.299 113.942 420.83 120.067 420.791 127.279C420.797 128.355 420.803 129.431 420.809 130.539C420.826 134.127 420.821 137.715 420.816 141.303C420.824 143.882 420.832 146.462 420.842 149.041C420.863 155.309 420.868 161.577 420.866 167.845C420.865 172.941 420.868 178.036 420.876 183.132C420.878 184.602 420.88 186.072 420.882 187.543C420.884 188.641 420.884 188.641 420.885 189.761C420.904 203.585 420.903 217.408 420.896 231.232C420.891 243.872 420.912 256.511 420.945 269.15C420.978 282.141 420.994 295.132 420.989 308.123C420.987 315.412 420.992 322.7 421.017 329.988C421.04 336.84 421.037 343.69 421.017 350.542C421.014 353.056 421.019 355.57 421.033 358.083C421.051 361.516 421.038 364.947 421.018 368.38C421.031 369.374 421.043 370.367 421.056 371.391C420.974 377.844 419.675 382.327 415.397 387.266C412.233 389.586 412.233 389.586 408.772 391.391C407.082 392.292 407.082 392.292 405.358 393.211C404.74 393.53 404.123 393.849 403.486 394.177C394.779 398.713 386.229 403.561 377.647 408.328C377.071 408.648 376.494 408.967 375.901 409.296C369.47 412.864 363.053 416.451 356.666 420.098C355.618 420.695 354.571 421.292 353.491 421.908C351.51 423.04 349.532 424.176 347.556 425.317C346.669 425.823 345.783 426.33 344.869 426.852C344.098 427.295 343.328 427.739 342.534 428.197C340.473 429.227 338.629 429.748 336.397 430.266C336.39 428.674 336.39 428.674 336.384 427.051C336.281 401.281 336.172 375.511 336.057 349.74C336.002 337.278 335.948 324.816 335.899 312.354C335.856 301.496 335.81 290.638 335.76 279.78C335.733 274.028 335.708 268.275 335.688 262.522C335.668 257.114 335.644 251.705 335.616 246.297C335.607 244.306 335.599 242.315 335.593 240.324C335.585 237.618 335.571 234.912 335.555 232.206C335.553 231.008 335.553 231.008 335.552 229.786C335.853 226.231 335.853 226.231 334.397 223.266C328.557 223.606 324.629 225.45 319.647 228.391C318.044 229.308 316.441 230.225 314.838 231.141C313.968 231.642 313.098 232.143 312.202 232.66C307.025 235.623 301.801 238.5 296.584 241.391C294.843 242.358 293.102 243.325 291.361 244.292C280.573 250.285 269.766 256.243 258.958 262.199C254.496 264.659 250.036 267.122 245.576 269.586C243.639 270.656 241.702 271.726 239.764 272.796C238.547 273.469 237.329 274.142 236.111 274.815C233.311 276.364 230.509 277.908 227.701 279.442C225.398 280.713 223.117 282.001 220.842 283.32C219.695 283.971 218.547 284.622 217.365 285.293C215.825 286.184 215.825 286.184 214.254 287.093C210.94 288.453 209.739 288.43 206.397 287.266C204.495 286.381 202.625 285.426 200.783 284.422C199.708 283.839 198.633 283.257 197.525 282.657C196.39 282.033 195.254 281.409 194.084 280.766C192.902 280.122 191.72 279.478 190.537 278.835C182.408 274.405 174.324 269.896 166.273 265.327C162.928 263.435 159.569 261.569 156.209 259.703C155.48 259.298 154.751 258.893 154 258.476C149.256 255.845 144.507 253.222 139.756 250.602C139.168 250.277 138.579 249.952 137.973 249.618C134.899 247.922 131.823 246.228 128.745 244.537C123.015 241.385 117.295 238.219 111.61 234.986C109.133 233.577 106.653 232.175 104.172 230.774C102.432 229.786 100.697 228.786 98.9632 227.786C97.91 227.192 96.8567 226.597 95.7716 225.984C94.8512 225.458 93.9308 224.931 92.9825 224.389C90.2053 223.182 88.3904 222.953 85.3966 223.266C83.3778 225.284 84.2417 229.437 84.2383 232.206C84.2334 233.048 84.2285 233.891 84.2234 234.758C84.2079 237.602 84.1996 240.446 84.1912 243.289C84.1817 245.319 84.1717 247.349 84.1612 249.378C84.1341 254.907 84.1132 260.436 84.0932 265.964C84.0714 271.735 84.044 277.506 84.0172 283.277C83.9672 294.214 83.9223 305.15 83.8792 316.086C83.8298 328.534 83.7749 340.981 83.7195 353.428C83.6056 379.04 83.4988 404.653 83.3966 430.266C79.4319 428.981 75.9154 427.599 72.2911 425.535C71.321 424.987 70.3509 424.439 69.3514 423.874C68.3144 423.281 67.2775 422.689 66.2091 422.078C63.9672 420.809 61.725 419.541 59.4825 418.273C58.9045 417.946 58.3265 417.618 57.731 417.281C51.2882 413.63 44.8108 410.043 38.3341 406.453C36.0775 405.198 33.821 403.943 31.5645 402.687C27.8459 400.62 24.1213 398.566 20.3848 396.531C4.40454 387.789 4.40454 387.789 1.2488 382.252C-0.0334804 377.759 0.118344 373.39 0.135872 368.74C0.132046 367.668 0.12822 366.597 0.124279 365.492C0.113946 361.894 0.117942 358.296 0.12191 354.698C0.117564 352.121 0.112381 349.544 0.106422 346.966C0.0936715 340.688 0.0918827 334.41 0.094223 328.132C0.0960063 323.027 0.094254 317.922 0.0899963 312.818C0.0891036 311.728 0.0891066 311.728 0.0881958 310.616C0.086984 309.14 0.0857692 307.663 0.0845528 306.187C0.0736752 292.341 0.0758387 278.495 0.0819359 264.649C0.0871022 251.991 0.0758589 239.333 0.056839 226.674C0.0374509 213.671 0.029207 200.668 0.0329628 187.665C0.0348738 180.367 0.0323952 173.069 0.0182457 165.771C0.0050701 158.906 0.00760517 152.041 0.0206566 145.176C0.0230236 142.657 0.0202852 140.139 0.0120354 137.621C0.00157681 134.18 0.00966217 130.74 0.0223465 127.299C0.0112851 125.808 0.0112849 125.808 0 124.288C0.0715389 115.046 2.00325 107.785 8.43954 100.996C19.3117 91.3825 28.9422 96.3882 40.2733 102.287Z" fill="#11A47C"/>
<path d="M40.2733 102.287C41.7265 103.05 41.7265 103.05 43.2091 103.828C44.7387 104.629 44.7387 104.629 46.2992 105.446C53.0807 109.01 59.8059 112.662 66.4869 116.411C72.6503 119.867 78.8629 123.227 85.0841 126.578C94.037 131.407 102.91 136.359 111.751 141.39C119.584 145.836 127.494 150.128 135.425 154.395C142.216 158.059 148.944 161.819 155.647 165.641C165.464 171.236 175.395 176.602 185.38 181.89C193.49 186.197 201.413 190.704 209.397 195.266C209.397 225.626 209.397 255.986 209.397 287.266C205.148 286.416 202.884 285.654 199.221 283.641C198.236 283.104 197.251 282.567 196.237 282.013C195.196 281.436 194.156 280.86 193.084 280.266C192.008 279.676 190.931 279.085 189.822 278.477C182.587 274.503 175.38 270.482 168.197 266.414C158.758 261.07 149.254 255.84 139.756 250.602C139.168 250.277 138.579 249.953 137.973 249.618C134.899 247.922 131.823 246.228 128.745 244.537C123.015 241.385 117.295 238.22 111.61 234.986C109.133 233.577 106.653 232.176 104.172 230.774C102.432 229.786 100.697 228.786 98.9632 227.787C97.91 227.192 96.8567 226.597 95.7716 225.985C94.8512 225.458 93.9308 224.931 92.9825 224.389C90.2053 223.183 88.3904 222.953 85.3966 223.266C83.3778 225.285 84.2417 229.437 84.2383 232.207C84.2334 233.049 84.2285 233.891 84.2234 234.758C84.2079 237.602 84.1996 240.446 84.1912 243.289C84.1817 245.319 84.1717 247.349 84.1612 249.378C84.1341 254.907 84.1132 260.436 84.0932 265.965C84.0714 271.736 84.044 277.506 84.0172 283.277C83.9672 294.214 83.9223 305.15 83.8792 316.087C83.8298 328.534 83.7749 340.981 83.7195 353.428C83.6056 379.041 83.4988 404.653 83.3966 430.266C79.4319 428.981 75.9154 427.599 72.2911 425.535C71.321 424.987 70.3509 424.439 69.3514 423.874C68.3144 423.281 67.2775 422.689 66.2091 422.078C63.9672 420.81 61.725 419.541 59.4825 418.274C58.9045 417.946 58.3265 417.618 57.731 417.281C51.2882 413.63 44.8108 410.043 38.3341 406.453C36.0775 405.198 33.821 403.943 31.5645 402.688C27.8459 400.621 24.1213 398.566 20.3848 396.531C4.40454 387.789 4.40454 387.789 1.2488 382.252C-0.0334804 377.759 0.118344 373.391 0.135872 368.741C0.132046 367.669 0.12822 366.597 0.124279 365.492C0.113946 361.894 0.117942 358.296 0.12191 354.698C0.117564 352.121 0.112381 349.544 0.106422 346.967C0.0936715 340.688 0.0918827 334.41 0.094223 328.132C0.0960063 323.027 0.094254 317.923 0.0899963 312.818C0.0891036 311.728 0.0891066 311.728 0.0881958 310.616C0.086984 309.14 0.0857692 307.664 0.0845528 306.187C0.0736752 292.341 0.0758387 278.495 0.0819359 264.65C0.0871022 251.991 0.0758589 239.333 0.056839 226.675C0.0374509 213.671 0.029207 200.668 0.0329628 187.665C0.0348738 180.367 0.0323952 173.069 0.0182457 165.771C0.0050701 158.906 0.00760517 152.041 0.0206566 145.176C0.0230236 142.658 0.0202852 140.139 0.0120354 137.621C0.00157681 134.18 0.00966217 130.74 0.0223465 127.299C0.0112851 125.808 0.0112849 125.808 0 124.288C0.0715389 115.046 2.00325 107.785 8.43954 100.996C19.3117 91.3827 28.9422 96.3884 40.2733 102.287Z" fill="#11A47C"/>
<path d="M209.834 0.015625C210.885 0.0104687 211.935 0.0053125 213.018 0C219.989 0.548073 225.741 2.63911 231.857 5.84375C232.885 6.37008 232.885 6.37008 233.934 6.90704C236.093 8.01696 238.245 9.13965 240.396 10.2656C241.423 10.8001 241.423 10.8001 242.471 11.3455C247.334 13.8785 252.18 16.4429 257.021 19.0156C258.521 19.8107 260.021 20.6058 261.521 21.4009C270.611 26.2255 279.665 31.1132 288.684 36.0693C295.044 39.5548 301.458 42.9268 307.896 46.2656C315.778 50.3611 323.64 54.4899 331.459 58.7031C332.369 59.1872 333.279 59.6712 334.217 60.1699C339.067 62.8001 343.446 65.385 347.396 69.2656C348.021 72.8281 348.021 72.8281 347.396 76.2656C344.822 79.283 342.154 81.1589 338.67 83.0078C337.734 83.5095 336.797 84.0112 335.833 84.5281C334.822 85.0602 333.812 85.5924 332.771 86.1406C331.716 86.7043 330.661 87.2681 329.574 87.8489C327.331 89.047 325.086 90.2424 322.84 91.4351C317.223 94.4211 311.622 97.4374 306.021 100.453C304.924 101.043 303.826 101.633 302.695 102.241C295.815 105.945 288.968 109.703 282.147 113.515C272.993 118.623 263.76 123.585 254.537 128.566C251.362 130.284 248.191 132.01 245.021 133.738C240.021 136.464 235.011 139.173 229.993 141.868C228.366 142.744 226.741 143.624 225.12 144.511C223.22 145.549 221.311 146.567 219.396 147.578C218.406 148.111 217.416 148.643 216.396 149.191C211.294 151.019 207.661 151.198 202.693 149.152C199.517 147.549 196.426 145.839 193.334 144.078C192.185 143.442 191.036 142.805 189.852 142.15C186.354 140.211 182.874 138.241 179.396 136.266C177.942 135.441 177.942 135.441 176.458 134.601C172.805 132.529 169.153 130.456 165.506 128.374C157.223 123.67 148.82 119.209 140.396 114.766C130.066 109.316 119.813 103.768 109.679 97.9573C104.743 95.1331 99.7782 92.3832 94.7559 89.7148C93.1007 88.8336 93.1007 88.8336 91.4121 87.9346C89.2861 86.8074 87.1561 85.6878 85.0215 84.5771C84.0676 84.0709 83.1137 83.5646 82.1309 83.043C81.2875 82.602 80.4441 82.1611 79.5752 81.7068C77.1789 80.1217 75.8782 78.7186 74.3965 76.2656C73.8965 72.7656 73.8965 72.7656 74.3965 69.2656C77.997 65.8545 82.175 63.6202 86.5488 61.3594C87.5807 60.8174 87.5807 60.8174 88.6333 60.2646C90.103 59.4933 91.5739 58.7244 93.046 57.9576C96.9146 55.9422 100.774 53.9092 104.635 51.8789C105.398 51.4782 106.161 51.0774 106.948 50.6645C113.003 47.4825 119.024 44.2431 125.021 40.9531C125.876 40.4846 126.731 40.016 127.611 39.5332C129.323 38.5945 131.034 37.6555 132.745 36.7163C137.62 34.0492 142.509 31.4089 147.396 28.7656C154.32 25.0199 161.238 21.2647 168.146 17.4897C171.744 15.5244 175.344 13.5642 178.944 11.604C181.252 10.3446 183.555 9.07721 185.857 7.80859C187.183 7.08559 188.508 6.36291 189.834 5.64062C191.503 4.7241 191.503 4.7241 193.205 3.78906C198.725 1.15403 203.728 -0.0142679 209.834 0.015625Z" fill="#10AF83"/>
<path d="M228.33 364.832C229.341 364.824 229.341 364.824 230.373 364.816C231.798 364.81 233.223 364.811 234.648 364.82C236.823 364.828 238.996 364.799 241.172 364.768C242.558 364.766 243.944 364.767 245.33 364.77C246.589 364.768 247.847 364.766 249.144 364.764C252.396 365.266 252.396 365.266 254.807 366.857C256.964 370.127 256.898 372.395 256.892 376.297C256.894 376.97 256.895 377.643 256.897 378.336C256.895 379.755 256.884 381.174 256.863 382.592C256.834 384.759 256.842 386.923 256.855 389.09C256.849 390.471 256.841 391.853 256.83 393.234C256.82 394.487 256.81 395.739 256.8 397.029C256.362 400.543 256.126 402.006 253.396 404.266C250.166 404.767 250.166 404.767 246.209 404.762C245.51 404.763 244.811 404.765 244.091 404.766C242.615 404.764 241.139 404.753 239.663 404.732C237.404 404.703 235.148 404.712 232.889 404.725C231.454 404.718 230.019 404.71 228.584 404.699C227.278 404.689 225.972 404.68 224.627 404.67C221.396 404.266 221.396 404.266 219.472 403.201C217.807 400.205 217.969 397.198 217.998 393.859C217.995 393.138 217.992 392.417 217.989 391.674C217.987 390.151 217.993 388.628 218.005 387.105C218.021 384.774 218.005 382.444 217.986 380.113C217.988 378.633 217.992 377.152 217.998 375.672C217.992 374.975 217.986 374.278 217.979 373.56C218.019 370.836 218.135 368.728 219.488 366.33C222.423 364.693 224.99 364.858 228.33 364.832Z" fill="#11A47C"/>
<path d="M174.33 364.832C175.341 364.824 175.341 364.824 176.373 364.816C177.798 364.81 179.223 364.811 180.648 364.82C182.823 364.828 184.996 364.799 187.172 364.768C188.558 364.766 189.944 364.767 191.33 364.77C192.589 364.768 193.847 364.766 195.144 364.764C198.396 365.266 198.396 365.266 200.807 366.857C202.964 370.127 202.898 372.395 202.892 376.297C202.894 376.97 202.895 377.643 202.897 378.336C202.895 379.755 202.884 381.174 202.863 382.592C202.834 384.759 202.842 386.923 202.855 389.09C202.849 390.471 202.841 391.853 202.83 393.234C202.82 394.487 202.81 395.739 202.8 397.029C202.362 400.543 202.126 402.006 199.396 404.266C196.166 404.767 196.166 404.767 192.209 404.762C191.51 404.763 190.811 404.765 190.091 404.766C188.615 404.764 187.139 404.753 185.663 404.732C183.404 404.703 181.148 404.712 178.889 404.725C177.454 404.718 176.019 404.71 174.584 404.699C173.278 404.689 171.972 404.68 170.627 404.67C167.396 404.266 167.396 404.266 165.472 403.201C163.807 400.205 163.969 397.198 163.998 393.859C163.995 393.138 163.992 392.417 163.989 391.674C163.987 390.151 163.993 388.628 164.005 387.105C164.021 384.774 164.005 382.444 163.986 380.113C163.988 378.633 163.992 377.152 163.998 375.672C163.992 374.975 163.986 374.278 163.979 373.56C164.019 370.836 164.135 368.728 165.488 366.33C168.423 364.693 170.99 364.858 174.33 364.832Z" fill="#11A47C"/>
<path d="M171.578 311.962C172.28 311.963 172.982 311.964 173.705 311.965C174.428 311.961 175.15 311.956 175.895 311.952C177.424 311.946 178.953 311.946 180.482 311.95C182.822 311.953 185.16 311.93 187.5 311.904C188.985 311.902 190.47 311.901 191.955 311.902C192.655 311.893 193.355 311.884 194.077 311.875C196.81 311.901 198.925 312 201.334 313.355C202.967 316.292 202.804 318.859 202.83 322.199C202.835 322.874 202.841 323.548 202.846 324.243C202.852 325.667 202.851 327.092 202.843 328.517C202.834 330.693 202.863 332.866 202.895 335.041C202.896 336.427 202.896 337.813 202.893 339.199C202.895 341.087 202.895 341.087 202.898 343.014C202.397 346.266 202.397 346.266 200.807 348.676C197.528 350.838 195.242 350.768 191.33 350.762C190.655 350.763 189.979 350.765 189.284 350.766C187.861 350.765 186.438 350.753 185.015 350.732C182.837 350.703 180.662 350.712 178.484 350.725C177.1 350.718 175.715 350.71 174.33 350.699C173.073 350.69 171.815 350.68 170.519 350.67C167.397 350.266 167.397 350.266 165.486 349.204C163.797 346.199 163.989 343.179 164.033 339.824C164.033 339.101 164.032 338.377 164.032 337.632C164.034 336.105 164.044 334.577 164.06 333.05C164.084 330.708 164.081 328.367 164.074 326.025C164.08 324.542 164.087 323.058 164.096 321.574C164.095 320.872 164.094 320.17 164.093 319.447C164.183 313.298 165.429 312.052 171.578 311.962Z" fill="#11A47C"/>
<path d="M225.578 311.962C226.28 311.963 226.982 311.964 227.705 311.965C228.428 311.961 229.15 311.956 229.895 311.952C231.424 311.946 232.953 311.946 234.482 311.95C236.822 311.953 239.16 311.93 241.5 311.904C242.985 311.902 244.47 311.901 245.955 311.902C246.655 311.893 247.355 311.884 248.077 311.875C250.81 311.901 252.925 312 255.334 313.355C256.967 316.292 256.804 318.859 256.83 322.199C256.835 322.874 256.841 323.548 256.846 324.243C256.852 325.667 256.851 327.092 256.843 328.517C256.834 330.693 256.863 332.866 256.895 335.041C256.896 336.427 256.896 337.813 256.893 339.199C256.895 341.087 256.895 341.087 256.898 343.014C256.397 346.266 256.397 346.266 254.807 348.676C251.528 350.838 249.242 350.768 245.33 350.762C244.655 350.763 243.979 350.765 243.284 350.766C241.861 350.765 240.438 350.753 239.015 350.732C236.837 350.703 234.662 350.712 232.484 350.725C231.1 350.718 229.715 350.71 228.33 350.699C227.073 350.69 225.815 350.68 224.519 350.67C221.397 350.266 221.397 350.266 219.486 349.204C217.797 346.199 217.989 343.179 218.033 339.824C218.033 339.101 218.032 338.377 218.032 337.632C218.034 336.105 218.044 334.577 218.06 333.05C218.084 330.708 218.081 328.367 218.074 326.025C218.08 324.542 218.087 323.058 218.096 321.574C218.095 320.872 218.094 320.17 218.093 319.447C218.183 313.298 219.429 312.052 225.578 311.962Z" fill="#11A47C"/>
</svg>
